<?xml version="1.0" encoding="UTF-8"?> <svg xmlns="http://www.w3.org/2000/svg" width="98" height="40" viewBox="0 0 98 40"><g fill="none" fill-rule="evenodd"><path d="M11.663 7.948h3.339v6.407c-.857.647-1.85 1.143-2.978 1.489a11.56 11.56 0 0 1-3.406.519c-1.64 0-3.114-.35-4.422-1.05a7.809 7.809 0 0 1-3.08-2.91C.373 11.164 0 9.76 0 8.197S.372 5.23 1.117 3.99c.744-1.24 1.778-2.21 3.102-2.91C5.542.379 7.03.029 8.685.029c1.384 0 2.64.234 3.768.7a7.465 7.465 0 0 1 2.842 2.03L12.95 4.925c-1.128-1.188-2.49-1.782-4.083-1.782-1.008 0-1.903.21-2.685.632a4.531 4.531 0 0 0-1.827 1.782c-.436.767-.654 1.647-.654 2.64 0 .977.218 1.85.654 2.616a4.627 4.627 0 0 0 1.816 1.794c.774.428 1.658.642 2.65.642 1.053 0 2-.225 2.843-.676V7.948zM18.731.29h3.66v12.83h7.928v2.982H18.731z" fill="#091540" fill-rule="nonzero"></path><path d="M62.41 7.88c.903.286 1.61.764 2.123 1.434.512.67.768 1.495.768 2.474 0 1.385-.538 2.45-1.615 3.196s-2.647 1.118-4.71 1.118h-8.177V.29h7.725c1.928 0 3.407.37 4.439 1.107 1.031.738 1.547 1.74 1.547 3.004 0 .768-.184 1.453-.553 2.056A3.877 3.877 0 0 1 62.41 7.88zm-7.975-4.834v3.727h3.637c.904 0 1.59-.158 2.056-.474.467-.316.7-.783.7-1.4 0-.618-.233-1.081-.7-1.39-.467-.309-1.152-.463-2.056-.463h-3.637zm6.45 9.826c-.49.316-1.216.474-2.18.474h-4.27V9.44h4.27c1.942 0 2.914.655 2.914 1.965 0 .662-.245 1.152-.734 1.468zM71.459 12.714H78.8l1.4 3.388h3.84L76.97.29h-3.614l-7.048 15.812h3.75l1.4-3.388zm3.682-8.832 2.507 6.054h-5.015l2.508-6.054z" fill="#091540"></path><path fill="#091540" fill-rule="nonzero" d="M85.992.29h3.66v12.83h7.928v2.982H85.992zM.655 23.91h3.663v12.844h7.938v2.985H.655zM27.626 36.8v2.939H15.37v-15.83h11.963v2.94H19.01v3.437h7.35v2.85h-7.35v3.663z"></path><path d="M38.15 23.91h-7.192v15.829h7.191c1.72 0 3.238-.328 4.557-.984 1.32-.656 2.344-1.579 3.076-2.77.73-1.191 1.097-2.578 1.097-4.161 0-1.583-.366-2.97-1.097-4.161-.732-1.191-1.756-2.114-3.076-2.77-1.319-.656-2.838-.984-4.557-.984zm3.607 11.498c-.943.882-2.205 1.323-3.788 1.323h-3.347v-9.814h3.347c1.583 0 2.845.44 3.788 1.323.942.881 1.413 2.076 1.413 3.584 0 1.507-.471 2.702-1.413 3.584z" fill="#091540"></path><path d="M61.135 31.575h3.342v6.415c-.858.647-1.851 1.144-2.98 1.49a11.57 11.57 0 0 1-3.411.52c-1.641 0-3.117-.35-4.427-1.05a7.82 7.82 0 0 1-3.083-2.914c-.745-1.242-1.118-2.646-1.118-4.212 0-1.566.373-2.97 1.118-4.212.745-1.242 1.78-2.214 3.106-2.914 1.325-.7 2.815-1.05 4.472-1.05 1.385 0 2.642.233 3.771.7a7.473 7.473 0 0 1 2.846 2.033l-2.349 2.168c-1.13-1.19-2.492-1.784-4.088-1.784-1.008 0-1.904.21-2.687.632a4.536 4.536 0 0 0-1.83 1.784c-.437.768-.655 1.65-.655 2.643 0 .979.218 1.852.655 2.62a4.633 4.633 0 0 0 1.818 1.796c.776.429 1.66.643 2.654.643 1.054 0 2.003-.226 2.846-.677v-4.63zM80.227 36.8v2.939H67.97v-15.83h11.963v2.94H71.61v3.437h7.35v2.85h-7.35v3.663z" fill="#091540" fill-rule="nonzero"></path><path d="m90.592 35.33 3.053 4.409h3.935l-3.55-5.088c1.04-.452 1.843-1.105 2.408-1.956.565-.852.848-1.866.848-3.042 0-1.176-.28-2.194-.837-3.053-.558-.86-1.353-1.523-2.386-1.99-1.032-.467-2.25-.7-3.652-.7H83.56v15.829h3.664v-4.41h3.369zm2.126-7.724c.573.475.86 1.158.86 2.047 0 .875-.287 1.553-.86 2.035-.573.483-1.41.724-2.51.724h-2.985v-5.518h2.985c1.1 0 1.937.238 2.51.712z" fill="#091540"></path><path d="M36.096 11.305a4.93 4.93 0 0 0 8.427-4.865l2.87-1.658c.47 1.035.73 2.183.73 3.392a8.218 8.218 0 0 1-14.897 4.788l2.87-1.657z" fill="#5A78EA"></path><path d="M40.757 0v3.317c1.154.2 2.17.803 2.9 1.658l2.876-1.66A8.21 8.21 0 0 0 40.757 0z" fill="#FF2A00" fill-rule="nonzero"></path><path d="M39.055 0a8.22 8.22 0 0 0-6.673 11.485l2.876-1.66a4.932 4.932 0 0 1 3.797-6.507V-.001z" fill="#091540" fill-rule="nonzero"></path></g></svg> 