<svg version="1.2" xmlns="http://www.w3.org/2000/svg" viewBox="0 0 1250 1042" width="1250" height="1042">
	<title>New Project</title>
	<style>
		.s0 { fill: #ffffff } 
	</style>
	<path id="Aryan Jacob" class="s0" aria-label="Aryan Jacob"  d="m59.6 529.2c0.5 0.2 1.1 0.2 1.8 0.2 3.4 0 7.9-1.8 11.1-3.1 18.8-7.3 37.9-13.4 57.2-18.2 0.7-0.2 1.7-0.7 2.4-0.7 0.4 0 0.8 0.3 1.3 0.5-0.3 1.8-1.3 3.1-2 4.4-7.5 13.8-34 63.4-38.1 76.4-0.4 1.3-0.6 2.3-0.6 3.4 0 5 3.8 8.1 7.5 8.1 1.9 0 3.6-0.6 5.1-2.1 4.1-4.4 7.5-9.4 9-15.7 0.4-1.2 0.4-2.3 0.4-2.9 0-3.1-2.1-2.7-2.1-5 0-0.7 0.2-1.5 0.8-3 6.5-16.3 23.8-49.6 32-64.1 1.5-2.7 3.4-3.7 6-4.4 10.3-2.3 76.7-15.2 87-15.2h0.8v0.4c0 1-0.4 1.9-0.8 2.7-26.8 63.7-41.4 95.9-67.8 159.8l-12 22.6c-0.6 1.1-1.7 3.6-1.7 5.5 0 1 0.3 1.9 1.1 2.3 0.6 0.2 0.9 0.4 1.5 0.4 1.7 0 2.2-2.1 3.2-4.2 2.6-6.5 5.6-11.9 8.4-18.2 27.8-67.3 43.9-101.6 72.4-168.4 1.1-2.7 4.3-4.6 6.9-4.8 15.2-1.7 30.4-3.6 45.8-3.8 0.5 0 1.3 0.2 2 0.2 1.2 0 1.9-0.4 1.9-1.9-0.2-1.4-1.1-1.6-2.2-1.6h-5.3c-12.7 0-25.3 1-37.9 2-0.9 0.3-2 0.5-3.1 0.5-0.6 0-1.4-0.2-2.1-0.5 13.7-34.5 47.1-105.5 47.1-143.4v-2.7c-0.4-9.3-4.4-18.9-13-18.9-0.9 0-1.9 0.2-2.8 0.4-17.8 3.4-51 43.8-61.1 57.2-28.5 37.7-55.1 77.1-77.6 119.6-1.4 2.5-2.9 3.8-5.5 4.4-24.4 4.6-48.2 11.9-71.4 21.1-1 0.5-1.7 0.7-2.5 0.7-0.5 0-1.1-0.2-1.6-0.4-0.6-0.3-1-0.5-1.5-0.5-2.3 0-3.8 2.8-3.8 5.3 0 2.3 1.1 4.6 3.8 5.6zm101.8-53.2c19.5-36.8 41.8-71.4 67.3-103.2 10.9-13.6 31.7-37.7 46.1-46.9 3.6-2.1 6.2-3.2 8.4-3.2 5.7 0 7.5 6.5 7.5 14.5 0 10-2.8 22.8-4.1 28-7.3 31-30.7 83.8-43.3 113.8-0.7 2.3-1.9 3.1-3.9 3.3-29.5 3.4-57.4 7.3-86.7 11.7 2.7-6.9 5.7-12.3 8.7-18zm110.6 102.2c1.3 4.6 3.6 8.4 9.8 9.7 0.7 0.2 1.4 0.2 2.4 0.2 23.6 0 70.1-58.7 93-74.6 0.9-0.4 1.7-1.4 2.4-2.3-0.2-0.2-0.4-0.6-0.7-1-1.3 0.8-2.7 1.4-4 2.3-14.6 9.2-68 72.9-90 72.9-0.9 0-1.8-0.3-2.6-0.5-4.5-1.2-6.6-4.8-6.9-9.4v-1.2c0-18.1 22.9-45.5 24-52.2 0.3-1.5 0.3-2.7 0.3-4 0-7.9-6.3-10.4-12.9-13 1.9-2.3 2.5-4.4 2.5-6.2 0-4-3.2-6.5-6.4-6.5-1.5 0-3 0.6-4.1 1.8-3.2 4.2-4.9 9.1-4.9 12.8 0 2.1 0.5 3.8 1.5 4.8 4.7 3.6 15.3 3.2 15.3 8.8 0 0.5-0.1 0.9-0.1 1.3-2.1 8.6-19.4 32.3-19.4 50.1 0 2.3 0.2 4.4 0.8 6.2zm35.6 112.1c1 0.2 1.9 0.2 2.8 0.2 7.5 0 16-4.8 21.4-10.7 21.8-22.8 40.3-56.3 54.4-85 6.2-13 12-26.2 18.2-39.4 0.9-1.9 2.2-3.8 3.7-5 16.5-13 33.8-24.5 52.3-33.3 3.8-1.7 7.5-3.4 11.3-5.3 0.7-0.4 1.3-1 1.9-1.6-0.2-0.2-0.4-0.7-0.6-0.9-21.9 8.4-42.6 20.1-62.4 35 0.2-0.6 0.2-1 0.2-1.3v-0.6c2-4.6 16.6-35.2 16.8-37v-0.9c0-1.2-0.5-2.1-1.7-2.1-0.3 0-0.9 0.2-1.5 0.4-0.7 0.5-1.3 1.3-1.8 1.9-15.4 15.5-24.8 26.2-43.2 38.8-1.8 1.4-3.9 2.3-6.1 3.5-0.2-0.8-0.4-1.4-0.4-2.3 0-1.7 0.7-3.1 1.3-4.6 4.1-11.3 9.2-21.8 15.6-31.6 1.8-2.9 3.9-5.5 3.9-8.2 0-0.8-0.2-1.7-0.8-2.5-0.3-0.6-0.9-0.8-1.6-0.8-6.4 0-25.2 26.8-26.3 47.3v1.3c0 4.8 2.4 7.7 6.2 7.7 1.1 0 2.6-0.2 3.9-0.8 8.5-3.8 28.5-23.1 35.3-30 0.9-1 2-1.9 3-2.9 0.2 0.2 0.4 0.4 0.5 0.4-4.1 9.6-10.6 21.8-15.5 31.6-1.1 2.1-2.5 3.8-4.3 5.3-26.5 21.3-50.3 40.6-71.3 69.5-10.7 14.7-23.6 33.7-23.6 52.4v0.4c0.2 6.7 2.4 9.8 8.4 11.1zm1.5-34.8c14.1-28 37.3-53.4 59.8-72.9 7-6 16.5-14.4 23.9-19.7-5.7 15.8-22.5 49.3-30.6 64.6-9.9 19-21.2 36-36 50.8-3.9 3.8-10.3 7.4-15.8 7.4h-0.5c-4.9-0.2-6.6-1.9-6.6-6.9v-0.9c0-7.9 2.3-15.3 5.8-22.4zm160.3-120.8c6.4-2.3 19.2-12.2 25.7-17-2 4.6-3.9 11.1-3.9 16.8 0 6 2.4 11.1 9.7 11.1h1.2c16.7-0.9 48.3-21.2 60.1-34.6 0.2-0.2 0.2-0.4 0.2-0.4 0-0.2 0-0.2-0.2-0.2h-0.1c-2.9 1.2-35.7 31.6-61.2 31.6h-0.1c-3.6 0-4.9-2.3-4.9-5.7 0-8.5 8-23.8 9.4-28.4 0.1-0.5 0.1-1.1 0.1-1.7 0-1.9-0.7-3.8-2.2-3.8-0.2 0-0.6 0.2-0.8 0.2-0.9 0.2-1.8 1.5-2.6 1.5-0.2 0-0.2 0-0.4-0.2-1.8-3.6-6-5.7-10.3-5.7-3.5 0-7.5 1.5-10.5 4.4-5.2 5.3-9.5 11.3-12.5 18.2-1 2.6-1.7 4.9-2.5 7.4-0.2 0.6-0.3 1.2-0.3 1.9 0 2.9 2.4 4.8 4.6 4.8 0.6 0 1 0 1.5-0.2zm5.3-13.6c2.1-4.2 8-11.6 12.2-13.9 0.9-0.6 1.9-0.8 2.6-0.8 1.5 0 3 0.8 4.1 2.9-6.5 7.2-10.9 10.1-18.5 15.3-0.4 0.2-0.8 0.4-1 0.4-0.2 0-0.4-0.2-0.4-0.8 0-1 0.8-2.9 1-3.1zm74.6 30.3c1 0.7 1.9 1.1 2.8 1.1 3.8 0 7.3-4.8 10.5-8.2 11.5-11.7 23.1-23.7 34.5-35.6 1.3-1.3 2.6-2.1 4.7-4-0.2 4-0.4 6.9-0.4 9.9 0 2.9-0.1 6.7-0.1 10.4 0 8.2 0.9 17 7.3 20.6 2.4 1.4 5 2.1 7.8 2.1 16.7 0 37-23.3 46.5-35.2 0.4-0.4 0.6-1.3 0.6-1.7v-0.4h-0.2c-2.4 0-26.1 33.7-45.2 33.7-2.4 0-4.8-0.6-7.1-1.9-3.7-2.3-4.7-10.3-4.7-18.4 0-6.7 0.6-13.6 0.6-17.6v-0.8c-0.2-4.2-1.7-6.5-4.3-6.5-1.2 0-2.5 0.4-4 1.4-6.3 4.4-27.2 25.6-35.2 33.3 0-2.5 0.5-4.2 1.5-5.6 4.1-8.8 10.9-21.2 13.7-29.8 0.1-0.4 0.1-1 0.1-1.6 0-2.1-1.1-4.4-3.1-4.4-1.7 0-4 1.4-6.6 5.4-8.4 12.4-15.4 25.6-20.6 39.8-1 2.5-1.9 5.4-1.9 8 0 2.5 0.8 4.6 2.8 6zm232.3-144.5c-5.4 7.3-9.5 15.1-12.7 23.7-0.6 1.7-1.3 4-1.3 6.1 0 2 0.7 3.7 2.8 4.6 0.3 0.2 0.7 0.2 1.1 0.2 2.8 0 4.1-3.8 5.3-7.6 2.9-8.3 7.4-15.7 12.9-22.4 10.7-13.8 22.1-26.8 36-37.1 17.6-13.1 46.1-29.3 66.9-35.1 4.9-1.3 9.8-2.3 14.5-2.3 9.3 0 17.8 3.7 22.8 15.2 2.9 6.1 4 13.2 4 20.6 0 17.6-6.4 37-11.1 51.3-0.9 2.9-2.2 4.6-4.9 5.6-13.1 6.1-26.4 12.6-39.1 20.1-25.7 15.3-49.6 33.3-72.6 53-35.5 30.4-54 60.8-70.3 107.3-2.8 8.3-4.3 17.4-4.3 26.4v2.9c0.5 10.9 5 17.8 14 20.7 2.6 0.9 5.3 1.3 7.7 1.3 8.1 0 15.8-4 23.3-8.4 32-19.1 59-53.8 80.2-85.7 22.9-34.3 54.6-95.5 68.8-134.8 0.8-1.9 1.9-2.8 3.6-3.4 4.9-2.1 19.1-7.1 24-7.7h0.2c1.8 0 1.5 3.1 2.8 3.1 0.2 0 0.7-0.2 1.3-0.8 0.6-0.7 0.9-1.7 0.9-2.8 0-1.8-0.9-3.5-3.7-3.5-1 0-2.3 0.2-3.8 0.8-7.1 2.7-14.8 3.8-22.1 6.9v-0.6c0-2.1 0.8-3.8 1.3-5.2 3.8-12.4 7-25.2 8.3-38.1 0.2-2.6 0.3-4.9 0.3-7.4 0-22.6-9-42.3-31.6-42.3h-1.9c-40 2.1-98.3 42.1-123.6 75.4zm135.6 32.3c-9 23-20.3 44.6-31.3 66.4-22.5 44.4-56.5 98.4-93.2 129.6-8.5 7.1-27 20.3-38.3 21.2h-2c-7.9 0-15.2-4.2-16.5-14.5-0.2-1.7-0.4-3.6-0.4-5.6 0-9.1 2.2-20.4 4.9-27.5 14.4-40 30-67.4 60-95.5 34.8-32.5 73.3-58 114.9-77.9 0.8-0.6 1.9-1.3 3.2-1.3h0.4c0 2.1-1 3.6-1.7 5.1zm3.5 95.5c6.4-2.3 19.2-12.2 25.7-17-2 4.6-3.9 11.1-3.9 16.8 0 6 2.4 11.1 9.7 11.1h1.2c16.7-0.9 48.3-21.2 60.2-34.6 0.1-0.2 0.1-0.4 0.1-0.4 0-0.2 0-0.2-0.1-0.2h-0.2c-2.8 1.2-35.7 31.6-61.2 31.6h-0.1c-3.6 0-4.9-2.3-4.9-5.7 0-8.5 8-23.8 9.4-28.4 0.1-0.5 0.1-1.1 0.1-1.7 0-1.9-0.7-3.8-2.2-3.8-0.2 0-0.6 0.2-0.8 0.2-0.9 0.2-1.8 1.5-2.6 1.5-0.2 0-0.2 0-0.4-0.2-1.8-3.6-6-5.7-10.3-5.7-3.5 0-7.5 1.5-10.5 4.4-5.2 5.3-9.5 11.3-12.5 18.2-1 2.6-1.7 4.9-2.5 7.4-0.2 0.6-0.3 1.2-0.3 1.9 0 2.9 2.4 4.8 4.6 4.8 0.6 0 1 0 1.5-0.2zm5.3-13.6c2.1-4.2 8.1-11.6 12.2-13.9 0.9-0.6 1.9-0.8 2.6-0.8 1.5 0 3 0.8 4.1 2.9-6.5 7.2-10.8 10.1-18.5 15.3-0.4 0.2-0.8 0.4-1 0.4-0.2 0-0.3-0.2-0.3-0.8 0-1 0.7-2.9 0.9-3.1zm99.9 35.8c18-6.5 45-30.2 58-45.3 0.3-0.4 0.3-0.6 0.3-0.8 0-0.4-0.1-0.6-0.3-0.6-0.2 0-0.6 0.2-0.8 0.4-14.6 13.4-38.8 35.8-57.2 42.5-2.4 0.8-4.7 1.3-7.1 1.3-5.2 0-9.7-2.8-9.7-9.9v-1c0.5-14.5 13.8-35.8 23.4-44.9 0.7-0.8 2.1-1.2 3.4-2 0.5 2.7 0.7 4.6 1.3 6.7 0.4 1.6 1.3 2.5 2.4 2.5 0.8 0 1.5-0.2 2.3-1.1 2-2.1 3-5.2 3-8.1 0-5.5-3.2-10.7-8.7-10.7-3.5 0-8 2.3-13.1 8.8-9.4 11.7-20.2 29.5-20.2 46.3v2.3c0.5 9.8 6.2 15.2 14.4 15.2 2.6 0 5.4-0.6 8.6-1.6zm53.8-1.1c1.9 0 3.8-1 5.3-2.3 10.5-7.7 15.7-19.9 21-32.4 3 1.8 7.7 2.5 12.6 2.5 1.3 0 2.6-0.2 3.9-0.2 12.9-0.9 27.6-6.1 33.9-9.7 1.5-0.6 2.1-1.4 2.1-1.9 0-0.4-0.4-0.6-0.9-0.6-0.4 0-1 0.2-1.5 0.4-9.2 4.9-22.9 9.7-35.1 9.7-5.1 0-9.8-0.9-13.9-2.8 0.6-2.5 1.5-6.9 1.9-8.8 0.2-1.2 0.4-2.5 0.4-3.7 0-7.6-4.3-10.5-8.8-10.5-3 0-6.2 1.3-8.5 3.4-9.4 8.1-17.6 26.1-19.7 39.5-0.2 1.1-0.2 2.3-0.2 3.6 0 2.3 0.2 4.8 0.8 7.1 0.6 3.4 3.7 6.7 6.6 6.7zm20.4-49.8c0.2-1.9 1.7-2.7 3-2.7 0.7 0 1.7 0.4 2.1 1.2 0 2.9-1.2 6.1-2.1 9.4-1.3-1.4-3-4.4-3-7.1zm-22.9 39.2c1.5-10.9 11.5-26.6 19.1-36.3 1.5 4.4 2.7 6.8 5.3 9.5-2.8 9.4-13.1 26.2-19.7 31.6-1.5 1-2.4 1.7-3.2 1.7-1.3 0-1.7-1.5-1.7-3.4 0-0.8 0-2.1 0.2-3.1zm71.3 11.3c10.7-15.7 24.9-36.7 41.2-45 1-0.7 1.9-0.9 2.8-0.9 2.5 0 4.2 2.3 4.7 5.7v1.4c0 1.3 0 2.8-0.2 3.8 0 0.9-0.3 0.9-1.1 1.5-17.4 12.8-25.7 20.1-40.7 40.2-6 8.2-8.2 14.9-8.2 19.9 0 6.5 3.7 10 8 10 1.7 0 3.4-0.4 4.9-1.4 2.3-1.3 4.7-3 6.4-5 15.9-18.3 27.5-32.7 34.3-58.7 0.7-3.1 2.2-4.4 4.7-5.6 10.3-5.1 20-7.4 30.5-9.3 5.1-0.8 8.1-1 13.5-1.8 0.4 0 0.6-0.3 0.6-0.5 0-0.4-0.2-0.6-0.6-0.6-0.7 0-1.6 0-3 0.2-15.9 1.3-28.1 3.2-43.5 9.4h-0.3c-1.3 0 0.9-6.5-4.3-11.5-1.5-1.2-3.2-1.9-5.1-1.9-5.3 0-11.4 4.2-14.8 7.4l-20.6 20.9c0.3-3.3 1.5-6.1 2.4-9 2.6-7.7 6.6-13.8 12.2-19.5 22.1-22.8 41.4-48.6 57.2-77.5 1.5-2.5 2.8-5.2 3.7-7.9 0.8-1.7 1-3.6 1-5.3 0-4.2-2.1-7.5-5.9-7.5-0.7 0-1.3 0-2 0.2-8.5 2.5-18.4 13.2-24.2 20.1-21 25.8-36.2 55.3-48 87.4-4.3 12.1-8.4 24.5-12.4 36.8-0.4 0.9-0.4 1.7-0.4 2.5 0 2.3 1.4 4.2 3.2 4.2 1.3 0 2.7-0.8 4-2.7zm47.4-28.3c-0.6 2.1-1.1 4.2-1.9 6.3-7.3 18.2-17.6 33.7-30.5 47.3-3.8 4-7 5.7-9 5.7-1.9 0-3-1.5-3-4.2 0-4 2.2-10.3 7.3-18 9.2-14.3 20.6-26.2 33.9-35.8 0.8-0.7 2.5-2.1 3-2.1 0.2 0 0.4 0.2 0.4 0.2 0 0.2-0.2 0.4-0.2 0.6zm19.5-102.2c2.6-3.1 5.8-5.9 8.8-8.6 1.1-1 2.6-1.7 4-2.5 0.1 0.2 0.5 0.4 0.9 0.6-0.6 1.9-0.8 4-1.5 5.7-13.7 29.5-34.9 56.1-55.3 79.8-0.4 0.6-1 1-1.5 1.5 11.4-28.1 26.2-53.7 44.6-76.5z"/>
</svg>